PathFileType	4	(X/Y/Z)	TVC_12_BWA3_walk_RCNL2025.trc
DataRate	CameraRate	NumFrames	NumMarkers	Units	OrigDataRate	OrigDataStartFrame	OrigNumFrames
100	100	7	27	mm	100	178	354
Frame#	Time	R_Shoulder			L_Shoulder			C7			J_Notch			R_Elbow			L_Elbow			R_Wrist			L_Wrist			R_Asis			L_Asis			R_Psis			L_Psis			Sacral			Thoracic			Sternum			R_Thigh_Lateral			R_Knee_Lateral			R_Shank_Lateral			R_Ankle_Lateral			R_Heel			R_Toe			L_Thigh_Lateral			L_Knee_Lateral			L_Shank_Lateral			L_Ankle_Lateral			L_Heel			L_Toe		
		X1	Y1	Z1	X2	Y2	Z2	X3	Y3	Z3	X4	Y4	Z4	X5	Y5	Z5	X6	Y6	Z6	X7	Y7	Z7	X8	Y8	Z8	X9	Y9	Z9	X10	Y10	Z10	X11	Y11	Z11	X12	Y12	Z12	X13	Y13	Z13	X14	Y14	Z14	X15	Y15	Z15	X16	Y16	Z16	X17	Y17	Z17	X18	Y18	Z18	X19	Y19	Z19	X20	Y20	Z20	X21	Y21	Z21	X22	Y22	Z22	X23	Y23	Z23	X24	Y24	Z24	X25	Y25	Z25	X26	Y26	Z26	X27	Y27	Z27
178	1.77000000	-660.626953	1338.673950	540.017822	-696.826294	1370.009277	125.082916	-785.808777	1425.197510	347.622742	-632.626038	1310.775024	330.424530	-757.910339	1014.430847	600.650940	-866.240662	1069.755859	63.358524	-693.832031	773.504395	560.086578	-842.377838	830.336273	106.859989	-713.316284	909.821045	477.113678	-733.874512	938.757812	130.448013	-895.616577	963.542542	380.509705	-906.547607	967.754395	272.266144	-901.082092	965.648468	326.387924	-880.934814	1178.640015	333.446716	-555.629395	1116.546997	304.072784	-716.119507	601.882812	487.616821	-699.098206	474.870178	428.874817	-753.235168	261.734680	465.053436	-797.470581	58.864056	397.115234	-841.030518	59.400253	341.020386	-662.672852	44.335690	375.589417	-691.199707	646.997681	49.487061	-665.103577	489.534729	109.864395	-793.502197	338.902618	83.415764	-898.924377	157.995316	170.516754	-938.127014	164.826416	229.633713	-789.543274	66.720413	177.468582
179	1.78000000	-653.457947	1338.701050	540.374817	-690.919006	1369.889404	125.494507	-779.011719	1425.301025	348.263153	-626.053345	1310.621094	330.697815	-749.974670	1014.476746	601.893616	-861.091187	1069.781372	64.733757	-684.785126	773.699066	562.729980	-836.848297	830.440247	108.370872	-707.235474	909.655151	478.067932	-728.032959	938.883789	131.316345	-889.399902	963.871277	381.517090	-900.454285	967.965576	273.280457	-894.927094	965.918427	327.398773	-874.510986	1178.875732	334.494385	-549.390137	1116.310791	304.296387	-712.520325	601.448792	487.928314	-696.419739	474.359100	429.027374	-751.779724	261.524658	465.126068	-797.366638	58.935131	397.107666	-840.977539	59.642605	341.063416	-662.659119	44.308910	375.580688	-683.886230	647.041626	50.472534	-653.251526	491.229797	112.089149	-776.839478	336.433655	85.529221	-875.628052	151.673248	172.770859	-915.145386	156.940460	231.989243	-762.702087	64.912643	179.432037
180	1.79000000	-646.360046	1338.723022	540.672119	-684.966614	1369.746582	125.832664	-772.227783	1425.389526	348.805969	-619.484192	1310.457153	330.921936	-742.163208	1014.525208	603.048584	-855.976074	1069.854370	66.003151	-675.816528	773.919281	565.278137	-831.380280	830.578064	109.840816	-701.140564	909.563843	478.880157	-722.179016	938.941223	132.144989	-883.212830	964.205139	382.413879	-894.361694	968.171143	274.186768	-888.787262	966.188141	328.300323	-868.089539	1179.096069	335.412109	-543.146057	1116.061035	304.524750	-708.847595	601.082581	488.242493	-693.880798	473.874695	429.160797	-750.445496	261.344299	465.199768	-797.270264	59.004414	397.103088	-840.946106	59.901970	341.107971	-662.644897	44.286160	375.578339	-676.525696	647.016174	51.449802	-641.969177	492.820587	114.327019	-760.441833	333.855286	87.660934	-851.892761	145.144455	174.926819	-891.523499	148.719299	234.304642	-735.610535	63.034916	180.993225
181	1.80000000	-639.330322	1338.737061	540.910828	-678.954224	1369.579102	126.098495	-765.453247	1425.462769	349.250122	-612.914673	1310.282959	331.098602	-734.473694	1014.574341	604.122192	-850.868164	1069.966553	67.162582	-666.928223	774.163788	567.724121	-825.974945	830.743011	111.271412	-695.024048	909.554382	479.558960	-716.311584	938.917480	132.926132	-877.050781	964.543274	383.203064	-888.264465	968.366333	274.988831	-882.657623	966.454803	329.095947	-861.667358	1179.299805	336.196564	-536.892456	1115.797241	304.754944	-705.097412	600.788757	488.562256	-691.505859	473.421692	429.280945	-749.249878	261.192932	465.273468	-797.183899	59.070377	397.101868	-840.942505	60.176659	341.156464	-662.630981	44.267826	375.580719	-669.192566	646.888672	52.419529	-631.290344	494.256805	116.579773	-744.330017	331.185699	89.810936	-827.741455	138.497879	176.953598	-867.279602	140.264282	236.528442	-708.279846	61.196758	182.138290
182	1.81000000	-632.366150	1338.740967	541.091797	-672.868347	1369.385620	126.292824	-758.684753	1425.519531	349.594604	-606.341309	1310.097778	331.228821	-726.901489	1014.622375	605.119629	-845.740967	1070.108398	68.208557	-658.121826	774.429962	570.061646	-820.633698	830.926727	112.663094	-688.883179	909.625549	480.118774	-710.427917	938.801270	133.652771	-870.907715	964.884338	383.888550	-882.156677	968.545532	275.690308	-876.532196	966.714935	329.789429	-855.241577	1179.485107	336.844910	-530.624939	1115.518066	304.982758	-701.290405	600.565674	488.885040	-689.318481	473.004974	429.392365	-748.203918	261.068817	465.344666	-797.109680	59.132126	397.103912	-840.969666	60.462749	341.209564	-662.618286	44.253372	375.586182	-661.987549	646.609619	53.386074	-621.241028	495.493561	118.853004	-728.508057	328.436890	91.973099	-803.202332	131.831161	178.816650	-842.447510	131.694580	238.603790	-680.728149	59.514111	182.869446
183	1.82000000	-625.464661	1338.732300	541.215271	-666.697388	1369.164307	126.416161	-751.919495	1425.557617	349.838348	-599.760803	1309.899658	331.312775	-719.440063	1014.667297	606.045044	-840.569397	1070.270386	69.138153	-649.398773	774.714355	572.284973	-815.355469	831.118958	114.014275	-682.719238	909.768433	480.578156	-704.523254	938.583313	134.318954	-864.776062	965.226196	384.475006	-876.032288	968.702271	276.294830	-870.404175	966.964233	330.384918	-848.809631	1179.648926	337.354950	-524.339294	1115.221924	305.203003	-697.470398	600.407227	489.204254	-687.338806	472.629639	429.498322	-747.312378	260.969971	465.410278	-797.049805	59.189537	397.108704	-841.026428	60.753887	341.265930	-662.607361	44.241703	375.593140	-655.025208	646.120483	54.356426	-611.837219	496.493195	121.154495	-712.961609	325.617340	94.133354	-778.311707	125.251373	180.478500	-817.081238	123.147324	240.474014	-652.985718	58.101746	183.207870
184	1.83000000	-618.622925	1338.708862	541.281067	-660.432129	1368.913818	126.468620	-745.155151	1425.573608	349.980225	-593.170349	1309.686035	331.349976	-712.081299	1014.707214	606.901611	-835.330383	1070.442139	69.948959	-640.760193	775.012817	574.388733	-810.135071	831.308502	115.320812	-676.536499	909.968140	480.958038	-698.591492	938.257019	134.919876	-858.647705	965.566040	384.967377	-869.885010	968.828979	276.806030	-864.266357	967.197510	330.886703	-842.369202	1179.787476	337.725372	-518.031738	1114.906494	305.409973	-693.700012	600.305115	489.511963	-685.581909	472.300934	429.600861	-746.574341	260.895203	465.467590	-797.006104	59.243370	397.115479	-841.107117	61.041405	341.322113	-662.598389	44.231449	375.600433	-648.420288	645.366455	55.340668	-603.082886	497.226562	123.492905	-697.659729	322.735992	96.269768	-753.116394	118.874451	181.899460	-791.256836	114.772881	242.084000	-625.097534	57.068001	183.194550
